# Created by Kenney (www.kenney.nl)

mtllib Book.mtl

v 5 6 -1.5
v 5 -6 -1.5
v 5 6 1.5
v 5 -6 1.5
v 4 6 -1.5
v 4 6 1.5
v 4 -6 1.5
v 4 -6 -1.5
v 3 6 -1.5
v 3 -6 -1.5
v 3 6 1.5
v 3 -6 1.5
v 2 6 -1.5
v 2 6 1.5
v 2 -6 1.5
v 2 -6 -1.5
v 2 5 -1.5
v 2 5 1.5
v -2 6 -1.5
v -2 6 1.5
v -2 5 1.5
v -2 5 -1.5
v 5 5 -1.5
v 5 5 1.5
v 4 5 1.5
v 4 5 -1.5
v 2 4 -1.5
v 2 4 1.5
v -2 4 1.5
v -2 4 -1.5
v -2 -5 -1.5
v -2 -5 1.5
v -3 5 -1.5
v -3 5 1.5
v -3 -5 1.5
v -3 -5 -1.5
v -3 4 -1.5
v -3 -4 -1.5
v -3 4 1.5
v -3 -4 1.5
v -4 4 -1.5
v -4 4 1.5
v -4 -4 1.5
v -4 -4 -1.5
v 2 3 -1.5
v 2 2 -1.5
v 2 3 1.5
v 2 2 1.5
v -2 3 -1.5
v -2 3 1.5
v -2 2 1.5
v -2 2 -1.5
v 2 1 -1.5
v 2 0 -1.5
v 2 1 1.5
v 2 0 1.5
v -2 1 -1.5
v -2 1 1.5
v -2 0 1.5
v -2 0 -1.5
v 2 -1 -1.5
v 2 -2 -1.5
v 2 -1 1.5
v 2 -2 1.5
v -2 -1 -1.5
v -2 -1 1.5
v -2 -2 1.5
v -2 -2 -1.5
v 2 -3 -1.5
v 2 -4 -1.5
v 2 -3 1.5
v 2 -4 1.5
v -2 -3 -1.5
v -2 -3 1.5
v -2 -4 1.5
v -2 -4 -1.5
v 2 -5 -1.5
v 2 -5 1.5
v -2 -6 1.5
v -2 -6 -1.5
v -3 6 -1.5
v -3 6 1.5
v -4 5 -1.5
v -4 5 1.5
v -4 -5 1.5
v -4 -5 -1.5
v -3 -6 1.5
v -3 -6 -1.5
v -4 6 -1.5
v -4 6 1.5
v -4 -6 1.5
v -4 -6 -1.5

vn 1 0 0
vn 0 1 0
vn 0 -1 0
vn -1 0 0
vn 0 0 -1
vn 0 0 1

vt -19.68504 19.68504
vt 19.68504 19.68504
vt -19.68504 -19.68504
vt 0 NaN
vt 0 0
vt 0 NaN
vt 0 NaN
vt 0 NaN
vt 0 NaN
vt 0 NaN
vt 19.68504 -19.68504
vt 0 NaN
vt 0 NaN
vt 0 NaN
vt 0 NaN
vt 0 NaN
vt 0 NaN
vt 0 NaN
vt 0 NaN
vt 0 NaN
vt 0 NaN
vt 0 NaN
vt 0 NaN
vt 0 NaN
vt 0 NaN
vt 0 NaN
vt 0 NaN
vt 0 NaN
vt 0 NaN
vt 0 NaN
vt 0 NaN
vt 0 NaN
vt 0 NaN
vt 0 NaN
vt 0 NaN
vt 0 NaN
vt 0 NaN
vt 0 NaN
vt 0 NaN
vt 0 NaN
vt 0 NaN
vt 0 NaN
vt 0 NaN
vt 0 NaN
vt 0 NaN
vt 0 NaN
vt 0 NaN
vt 0 NaN
vt 0 NaN
vt 0 NaN
vt 0 NaN
vt 0 NaN
vt 0 NaN
vt 0 NaN
vt 0 NaN
vt 0 NaN
vt 0 NaN
vt 0 NaN
vt 0 NaN
vt 0 NaN
vt 0 NaN
vt 0 NaN
vt 0 NaN
vt 0 NaN
vt 0 NaN
vt 0 NaN
vt 0 NaN
vt 0 NaN
vt 0 NaN
vt 0 NaN
vt 0 NaN
vt 0 NaN
vt 0 NaN
vt 0 NaN
vt 0 NaN
vt 0 NaN
vt 0 NaN
vt 0 NaN
vt 0 NaN
vt 0 NaN
vt 0 NaN
vt 0 NaN
vt 0 NaN
vt 0 NaN
vt 0 NaN
vt 0 NaN
vt 0 NaN
vt 0 NaN
vt 0 NaN
vt 0 NaN
vt 0 NaN
vt 0 NaN
vt 0 NaN
vt 0 NaN
vt 0 NaN
vt 0 NaN
vt 0 NaN

usemtl color2

f 3/3/1 2/2/1 1/1/1
f 2/3/1 3/2/1 4/1/1
f 5/3/2 3/2/2 1/1/2
f 3/3/2 5/2/2 6/1/2
f 7/5/3 2/5/3 4/4/3
f 2/5/3 7/5/3 8/6/3
f 7/5/4 5/5/4 8/7/4
f 5/5/4 7/5/4 6/8/4
f 5/5/5 2/5/5 8/9/5
f 2/5/5 5/5/5 1/10/5
f 3/2/6 7/3/6 4/11/6
f 7/3/6 3/2/6 6/1/6
f 11/3/1 10/2/1 9/1/1
f 10/3/1 11/2/1 12/1/1
f 13/3/2 11/2/2 9/1/2
f 11/3/2 13/2/2 14/1/2
f 15/5/3 10/5/3 12/12/3
f 10/5/3 15/5/3 16/13/3
f 15/5/4 13/5/4 16/14/4
f 13/5/4 15/5/4 14/15/4
f 13/5/5 10/5/5 16/16/5
f 10/5/5 13/5/5 9/17/5
f 11/2/6 15/3/6 12/11/6
f 15/3/6 11/2/6 14/1/6
f 14/3/1 17/2/1 13/1/1
f 17/3/1 14/2/1 18/1/1
f 19/3/2 14/2/2 13/1/2
f 14/3/2 19/2/2 20/1/2
f 21/5/3 17/5/3 18/18/3
f 17/5/3 21/5/3 22/19/3
f 21/5/4 19/5/4 22/20/4
f 19/5/4 21/5/4 20/21/4
f 19/5/5 17/5/5 22/22/5
f 17/5/5 19/5/5 13/5/5
f 14/2/6 21/3/6 18/11/6
f 21/3/6 14/2/6 20/1/6
f 3/3/1 23/2/1 1/1/1
f 23/3/1 3/2/1 24/1/1
f 5/3/2 3/2/2 1/1/2
f 3/3/2 5/2/2 6/1/2
f 25/5/3 23/5/3 24/23/3
f 23/5/3 25/5/3 26/24/3
f 25/5/4 5/5/4 26/25/4
f 5/5/4 25/5/4 6/8/4
f 5/5/5 23/5/5 26/26/5
f 23/5/5 5/5/5 1/10/5
f 3/2/6 25/3/6 24/11/6
f 25/3/6 3/2/6 6/1/6
f 14/3/1 27/2/1 13/1/1
f 27/3/1 14/2/1 28/1/1
f 19/3/2 14/2/2 13/1/2
f 14/3/2 19/2/2 20/1/2
f 29/5/3 27/5/3 28/27/3
f 27/5/3 29/5/3 30/28/3
f 29/5/4 19/5/4 30/29/4
f 19/5/4 29/5/4 20/21/4
f 19/5/5 27/5/5 30/30/5
f 27/5/5 19/5/5 13/5/5
f 14/2/6 29/3/6 28/11/6
f 29/3/6 14/2/6 20/1/6
f 21/3/1 31/2/1 22/1/1
f 31/3/1 21/2/1 32/1/1
f 33/3/2 21/2/2 22/1/2
f 21/3/2 33/2/2 34/1/2
f 35/5/3 31/5/3 32/31/3
f 31/5/3 35/5/3 36/32/3
f 35/5/4 33/5/4 36/33/4
f 33/5/4 35/5/4 34/34/4
f 33/5/5 31/5/5 36/35/5
f 31/5/5 33/5/5 22/22/5
f 21/2/6 35/3/6 32/11/6
f 35/3/6 21/2/6 34/1/6
f 39/3/1 38/2/1 37/1/1
f 38/3/1 39/2/1 40/1/1
f 41/3/2 39/2/2 37/1/2
f 39/3/2 41/2/2 42/1/2
f 43/5/3 38/5/3 40/36/3
f 38/5/3 43/5/3 44/37/3
f 43/5/4 41/5/4 44/38/4
f 41/5/4 43/5/4 42/39/4
f 41/5/5 38/5/5 44/40/5
f 38/5/5 41/5/5 37/41/5
f 39/2/6 43/3/6 40/11/6
f 43/3/6 39/2/6 42/1/6
f 47/3/1 46/2/1 45/1/1
f 46/3/1 47/2/1 48/1/1
f 49/3/2 47/2/2 45/1/2
f 47/3/2 49/2/2 50/1/2
f 51/5/3 46/5/3 48/42/3
f 46/5/3 51/5/3 52/43/3
f 51/5/4 49/5/4 52/44/4
f 49/5/4 51/5/4 50/45/4
f 49/5/5 46/5/5 52/46/5
f 46/5/5 49/5/5 45/47/5
f 47/2/6 51/3/6 48/11/6
f 51/3/6 47/2/6 50/1/6
f 55/3/1 54/2/1 53/1/1
f 54/3/1 55/2/1 56/1/1
f 57/3/2 55/2/2 53/1/2
f 55/3/2 57/2/2 58/1/2
f 59/5/3 54/5/3 56/48/3
f 54/5/3 59/5/3 60/49/3
f 59/5/4 57/5/4 60/50/4
f 57/5/4 59/5/4 58/51/4
f 57/5/5 54/5/5 60/52/5
f 54/5/5 57/5/5 53/53/5
f 55/2/6 59/3/6 56/11/6
f 59/3/6 55/2/6 58/1/6
f 63/3/1 62/2/1 61/1/1
f 62/3/1 63/2/1 64/1/1
f 65/3/2 63/2/2 61/1/2
f 63/3/2 65/2/2 66/1/2
f 67/5/3 62/5/3 64/54/3
f 62/5/3 67/5/3 68/55/3
f 67/5/4 65/5/4 68/56/4
f 65/5/4 67/5/4 66/57/4
f 65/5/5 62/5/5 68/58/5
f 62/5/5 65/5/5 61/59/5
f 63/2/6 67/3/6 64/11/6
f 67/3/6 63/2/6 66/1/6
f 71/3/1 70/2/1 69/1/1
f 70/3/1 71/2/1 72/1/1
f 73/3/2 71/2/2 69/1/2
f 71/3/2 73/2/2 74/1/2
f 75/5/3 70/5/3 72/60/3
f 70/5/3 75/5/3 76/61/3
f 75/5/4 73/5/4 76/62/4
f 73/5/4 75/5/4 74/63/4
f 73/5/5 70/5/5 76/64/5
f 70/5/5 73/5/5 69/65/5
f 71/2/6 75/3/6 72/11/6
f 75/3/6 71/2/6 74/1/6
f 78/3/1 16/2/1 77/1/1
f 16/3/1 78/2/1 15/1/1
f 31/3/2 78/2/2 77/1/2
f 78/3/2 31/2/2 32/1/2
f 79/5/3 16/13/3 15/5/3
f 16/13/3 79/5/3 80/66/3
f 79/5/4 31/5/4 80/67/4
f 31/5/4 79/5/4 32/68/4
f 31/5/5 16/16/5 80/69/5
f 16/16/5 31/5/5 77/70/5
f 78/2/6 79/3/6 15/11/6
f 79/3/6 78/2/6 32/1/6

usemtl color1

f 6/3/1 8/2/1 5/1/1
f 8/3/1 6/2/1 7/1/1
f 9/3/2 6/2/2 5/1/2
f 6/3/2 9/2/2 11/1/2
f 12/12/3 8/6/3 7/5/3
f 8/6/3 12/12/3 10/5/3
f 12/5/4 9/5/4 10/71/4
f 9/5/4 12/5/4 11/72/4
f 9/17/5 8/9/5 10/5/5
f 8/9/5 9/17/5 5/5/5
f 6/2/6 12/3/6 7/11/6
f 12/3/6 6/2/6 11/1/6

usemtl color7

f 20/3/1 22/2/1 19/1/1
f 22/3/1 20/2/1 21/1/1
f 81/3/2 20/2/2 19/1/2
f 20/3/2 81/2/2 82/1/2
f 34/5/3 22/19/3 21/5/3
f 22/19/3 34/5/3 33/73/3
f 34/34/4 81/5/4 33/5/4
f 81/5/4 34/34/4 82/74/4
f 81/5/5 22/22/5 33/5/5
f 22/22/5 81/5/5 19/5/5
f 20/2/6 34/3/6 21/11/6
f 34/3/6 20/2/6 82/1/6
f 34/3/1 37/2/1 33/1/1
f 37/3/1 34/2/1 39/1/1
f 83/3/2 34/2/2 33/1/2
f 34/3/2 83/2/2 84/1/2
f 42/5/3 37/5/3 39/75/3
f 37/5/3 42/5/3 41/76/3
f 42/39/4 83/5/4 41/5/4
f 83/5/4 42/39/4 84/77/4
f 83/5/5 37/41/5 41/5/5
f 37/41/5 83/5/5 33/5/5
f 34/2/6 42/3/6 39/11/6
f 42/3/6 34/2/6 84/1/6
f 40/3/1 36/2/1 38/1/1
f 36/3/1 40/2/1 35/1/1
f 44/3/2 40/2/2 38/1/2
f 40/3/2 44/2/2 43/1/2
f 85/5/3 36/32/3 35/5/3
f 36/32/3 85/5/3 86/78/3
f 85/5/4 44/38/4 86/79/4
f 44/38/4 85/5/4 43/5/4
f 44/40/5 36/35/5 86/80/5
f 36/35/5 44/40/5 38/5/5
f 40/2/6 85/3/6 35/11/6
f 85/3/6 40/2/6 43/1/6
f 32/3/1 80/2/1 31/1/1
f 80/3/1 32/2/1 79/1/1
f 36/3/2 32/2/2 31/1/2
f 32/3/2 36/2/2 35/1/2
f 87/5/3 80/66/3 79/5/3
f 80/66/3 87/5/3 88/81/3
f 87/5/4 36/33/4 88/82/4
f 36/33/4 87/5/4 35/5/4
f 36/35/5 80/69/5 88/83/5
f 80/69/5 36/35/5 31/5/5
f 32/2/6 87/3/6 79/11/6
f 87/3/6 32/2/6 35/1/6

usemtl color8

f 82/3/1 33/2/1 81/1/1
f 33/3/1 82/2/1 34/1/1
f 89/3/2 82/2/2 81/1/2
f 82/3/2 89/2/2 90/1/2
f 84/5/3 33/73/3 34/5/3
f 33/73/3 84/5/3 83/84/3
f 84/77/4 89/5/4 83/5/4
f 89/5/4 84/77/4 90/85/4
f 89/5/5 33/5/5 83/5/5
f 33/5/5 89/5/5 81/5/5
f 82/2/6 84/3/6 34/11/6
f 84/3/6 82/2/6 90/1/6
f 35/3/1 88/2/1 36/1/1
f 88/3/1 35/2/1 87/1/1
f 86/3/2 35/2/2 36/1/2
f 35/3/2 86/2/2 85/1/2
f 91/5/3 88/81/3 87/5/3
f 88/81/3 91/5/3 92/86/3
f 91/5/4 86/79/4 92/87/4
f 86/79/4 91/5/4 85/5/4
f 86/80/5 88/83/5 92/88/5
f 88/83/5 86/80/5 36/35/5
f 35/2/6 91/3/6 87/11/6
f 91/3/6 35/2/6 85/1/6

usemtl color5

f 28/3/1 45/2/1 27/1/1
f 45/3/1 28/2/1 47/1/1
f 30/3/2 28/2/2 27/1/2
f 28/3/2 30/2/2 29/1/2
f 50/5/3 45/5/3 47/89/3
f 45/5/3 50/5/3 49/90/3
f 50/45/4 30/29/4 49/5/4
f 30/29/4 50/45/4 29/5/4
f 30/30/5 45/47/5 49/5/5
f 45/47/5 30/30/5 27/5/5
f 28/2/6 50/3/6 47/11/6
f 50/3/6 28/2/6 29/1/6
f 48/3/1 53/2/1 46/1/1
f 53/3/1 48/2/1 55/1/1
f 52/3/2 48/2/2 46/1/2
f 48/3/2 52/2/2 51/1/2
f 58/5/3 53/5/3 55/91/3
f 53/5/3 58/5/3 57/92/3
f 58/51/4 52/44/4 57/5/4
f 52/44/4 58/51/4 51/5/4
f 52/46/5 53/53/5 57/5/5
f 53/53/5 52/46/5 46/5/5
f 48/2/6 58/3/6 55/11/6
f 58/3/6 48/2/6 51/1/6
f 56/3/1 61/2/1 54/1/1
f 61/3/1 56/2/1 63/1/1
f 60/3/2 56/2/2 54/1/2
f 56/3/2 60/2/2 59/1/2
f 66/5/3 61/5/3 63/93/3
f 61/5/3 66/5/3 65/94/3
f 66/57/4 60/50/4 65/5/4
f 60/50/4 66/57/4 59/5/4
f 60/52/5 61/59/5 65/5/5
f 61/59/5 60/52/5 54/5/5
f 56/2/6 66/3/6 63/11/6
f 66/3/6 56/2/6 59/1/6
f 64/3/1 69/2/1 62/1/1
f 69/3/1 64/2/1 71/1/1
f 68/3/2 64/2/2 62/1/2
f 64/3/2 68/2/2 67/1/2
f 74/5/3 69/5/3 71/95/3
f 69/5/3 74/5/3 73/96/3
f 74/63/4 68/56/4 73/5/4
f 68/56/4 74/63/4 67/5/4
f 68/58/5 69/65/5 73/5/5
f 69/65/5 68/58/5 62/5/5
f 64/2/6 74/3/6 71/11/6
f 74/3/6 64/2/6 67/1/6
f 72/3/1 77/2/1 70/1/1
f 77/3/1 72/2/1 78/1/1
f 76/3/2 72/2/2 70/1/2
f 72/3/2 76/2/2 75/1/2
f 32/31/3 77/5/3 78/97/3
f 77/5/3 32/31/3 31/5/3
f 32/68/4 76/62/4 31/5/4
f 76/62/4 32/68/4 75/5/4
f 76/64/5 77/70/5 31/5/5
f 77/70/5 76/64/5 70/5/5
f 72/2/6 32/3/6 78/11/6
f 32/3/6 72/2/6 75/1/6

